<?xml version="1.0" encoding="UTF-8"?>
<svg width="800px" height="100px" viewBox="0 0 800 100" version="1.1" xmlns="http://www.w3.org/2000/svg" xmlns:xlink="http://www.w3.org/1999/xlink">
    <title>Combine</title>
    <g id="Combine" stroke="none" stroke-width="1" fill="none" fill-rule="evenodd">
        <path d="M124.96,18.56 C127.04,18.56 128.16,19.68 128.16,21.84 C128.16,22.4 127.44,24.8 126.08,28.96 C125.6,30.16 124.96,32.56 124.16,36.24 C122.88,41.36 121.92,46.8 121.28,52.48 C129.76,52 137.12,50.72 143.36,48.48 C144.16,41.76 144.96,36.48 145.76,32.64 C145.92,31.36 146.32,29.52 146.88,27.12 C147.28,25.44 148.24,24.56 149.76,24.56 C150.56,24.56 151.36,24.96 152,25.6 C152.64,26.32 152.96,27.12 152.96,27.92 L152.96,27.92 L152.32,31.92 C149.2,50.48 147.68,66.32 147.68,79.36 L147.68,79.36 L147.680983,79.9659536 C147.68426,80.6982249 147.698462,81.6307692 147.76,82.8 C147.76,84.32 147.84,85.2 147.84,85.52 C147.84,86.4 147.52,87.2 146.88,87.92 C146.24,88.56 145.44,88.88 144.64,88.88 C142.16,88.88 140.96,86.64 140.96,82.32 C140.96,76.16 141.44,67.28 142.56,55.6 C136,57.2 128.8,58.4 120.8,59.04 C120.32,65.36 119.84,73.76 119.36,84.32 C119.28,85.44 118.96,86.48 118.32,87.36 C117.6,88.16 116.8,88.64 115.92,88.64 C115.04,88.64 114.32,88.24 113.76,87.44 C113.12,86.64 112.88,85.84 112.88,84.88 C112.88,78.48 113.28,69.92 114.24,59.2 C113.92,59.2 113.36,59.28 112.72,59.28 L112.72,59.28 L111.04,59.28 C107.36,59.28 105.6,58.16 105.6,55.76 C105.6,54.96 105.84,54.24 106.4,53.52 C106.88,52.88 107.52,52.48 108.32,52.48 C108.56,52.48 109.52,52.56 111.2,52.64 C112.88,52.8 114.08,52.88 114.72,52.88 C115.92,41.52 117.92,32 120.64,24.32 C121.28,22.24 121.76,21.04 122,20.64 C122.72,19.28 123.68,18.56 124.96,18.56 Z M285.6,78.8 C286.08,78.8 286.64,79.04 287.44,79.52 C288.8,80.32 289.52,82 289.52,84.48 C289.52,87.04 288.32,88.32 286,88.32 C284.88,88.32 283.92,87.68 283.04,86.56 C281.92,85.84 281.36,84.56 281.36,82.8 C281.36,81.68 281.76,80.8 282.64,80 C283.44,79.2 284.48,78.8 285.6,78.8 Z M577.04,29.36 C579.12,29.36 580.24,30.56 580.48,32.96 C580,34.64 579.36,36.56 578.64,38.8 C577.68,42.08 576.64,46.32 575.52,51.6 C576.08,51.6 578.08,51.68 581.44,51.76 C586.08,52 588.4,53.36 588.4,55.92 C588.4,56.88 588.08,57.76 587.52,58.56 C586.88,59.36 586.16,59.76 585.44,59.76 C584.32,59.76 583.28,59.44 582.48,58.64 L582.48,58.64 L582.04736,58.63936 C581.3408,58.6368 580.112,58.624 578.32,58.56 C576.08,58.56 574.64,58.48 573.84,58.48 C572.4,64.72 571.52,68.56 571.2,70.08 C570.24,74.56 569.76,78.64 569.6,82.16 C570.4,82.8 570.8,83.68 570.8,84.96 C570.8,85.76 570.4,86.48 569.68,87.2 C568.88,87.84 568.16,88.16 567.36,88.16 C564.72,88.16 563.44,85.92 563.44,81.6 C563.44,79.2 563.92,75.36 564.96,70.16 L564.96,70.16 L567.36,58.64 C564.88,58.64 563.68,57.52 563.68,55.2 C563.68,53.76 564.16,52.8 565.12,52.32 C565.76,52 566.96,51.76 568.88,51.76 C570.96,43.28 572.72,36.72 574.16,31.92 C574.64,30.24 575.6,29.36 577.04,29.36 Z M344.8,26.16 C346.88,26.16 348,27.44 348,29.84 C348,31.76 347.6,35.44 346.96,40.88 L346.96,40.88 L343.68,66.16 C342.72,72.88 342.32,77.36 342.32,79.44 C342.32,80.32 342.48,81.12 342.8,81.76 C343.28,82.88 343.6,83.6 343.6,83.92 C343.6,84.72 343.2,85.44 342.56,86.16 C341.92,86.88 341.2,87.28 340.4,87.28 C337.52,87.28 336.16,84.64 336.16,79.36 C336.16,75.52 336.56,70.32 337.44,63.84 L337.44,63.84 L340.08,44.56 C338.8,43.84 338.16,42.8 338.16,41.36 C338.16,38.88 338.8,35.84 340.08,32.24 C341.6,28.24 343.2,26.16 344.8,26.16 Z M230.56,24.4 C231.52,24.4 232.64,25.12 233.92,26.4 C235.2,27.84 235.92,28.96 235.92,29.92 C235.92,31.44 235.04,32.56 233.44,33.36 L233.44,33.36 L232.88,34.16 C230.48,43.36 229.28,52.56 229.28,61.76 C229.28,65.6 229.68,72.48 230.48,82.24 C230.48,82.56 230.48,83.04 230.64,83.76 C230.72,84.4 230.8,84.88 230.8,85.12 C230.8,85.52 230.48,85.92 230,86.32 C229.44,86.8 228.96,87.04 228.56,87.04 C226.96,87.04 225.6,85.84 224.48,83.52 C223.28,81.2 222.72,78.72 222.72,76 C222.72,73.52 222.96,71.76 223.52,70.8 C223.2,66 223.04,62.24 223.04,59.52 C223.04,48.96 224.56,38.72 227.68,28.8 C228.56,25.92 229.52,24.4 230.56,24.4 Z M209.2,24.4 C210.16,24.4 211.28,25.12 212.56,26.4 C213.84,27.84 214.56,28.96 214.56,29.92 C214.56,31.44 213.68,32.56 212.08,33.36 L212.08,33.36 L211.52,34.16 C209.12,43.36 207.92,52.56 207.92,61.76 C207.92,65.6 208.32,72.48 209.12,82.24 C209.12,82.56 209.12,83.04 209.28,83.76 C209.36,84.4 209.44,84.88 209.44,85.12 C209.44,85.52 209.12,85.92 208.64,86.32 C208.08,86.8 207.6,87.04 207.2,87.04 C205.6,87.04 204.24,85.84 203.12,83.52 C201.92,81.2 201.36,78.72 201.36,76 C201.36,73.52 201.6,71.76 202.16,70.8 C201.84,66 201.68,62.24 201.68,59.52 C201.68,48.96 203.2,38.72 206.32,28.8 C207.2,25.92 208.16,24.4 209.2,24.4 Z M389.92,48 C392.24,48 393.44,50.56 393.44,55.52 C393.44,57.6 392.64,62 391.12,68.88 C400.56,60 406.24,55.52 408.32,55.52 C409.6,55.52 410.48,56.08 410.88,57.04 C411.12,57.68 411.28,59.12 411.28,61.2 C411.28,67.28 411.68,71.6 412.56,74 C420.08,63.92 425.84,58.8 429.92,58.8 C431.68,58.8 432.56,59.76 432.64,61.68 C432.96,69.84 434.08,75.44 436,78.32 C436.8,79.6 437.2,80.4 437.2,80.64 C437.2,83.2 435.76,84.4 432.88,84.4 C429.52,84.4 427.2,78.88 425.92,67.84 C422.64,70.8 419.36,74.8 416,79.76 C414.4,82.24 412.88,83.44 411.44,83.44 C410,83.44 408.72,82.48 407.76,80.56 C405.84,77.04 404.72,71.92 404.24,65.28 C396.96,70.24 392.24,76.32 390.16,83.52 C389.52,85.76 388.32,86.88 386.64,86.88 C384.16,86.88 382.96,84.64 382.96,80.16 C382.96,77.76 383.52,73.76 384.8,68 C386,62.4 386.64,58.8 386.64,57.04 C386.64,55.52 386.24,53.92 385.44,52.32 C385.52,51.04 386.08,50 387.04,49.2 C387.92,48.4 388.88,48 389.92,48 Z M617.84,52 C618.88,52 619.84,52.48 620.8,53.44 C621.68,54.4 622.16,55.44 622.16,56.56 C622.16,57.52 621.36,58.48 619.76,59.28 C618.16,60.24 616.72,60.64 615.44,60.64 C615.36,60.64 614.88,60.48 613.92,60.16 C607.44,63.36 603.44,69.84 602,79.6 C601.6,82.16 601.28,83.84 601.04,84.64 C600.56,86.08 599.76,86.8 598.8,86.8 C597.84,86.8 596.88,86.24 596.08,85.28 C595.28,84.24 594.96,83.12 594.96,81.76 C594.96,81.52 595.12,80.48 595.6,78.56 C596,76.8 596.24,74.88 596.24,72.72 C596.24,70.8 596,68.24 595.68,65.12 C594.24,63.12 593.52,60.32 593.52,56.8 C593.52,56 593.76,55.2 594.24,54.4 C594.64,53.76 595.2,53.36 595.84,53.36 C597.36,53.36 598.56,54.24 599.44,55.84 C600.08,57.28 600.64,59.68 601.12,63.04 C606,55.68 611.6,52 617.84,52 Z M682.32,51.68 C684.32,51.68 686.24,52.64 688.16,54.56 C690.08,56.48 691.04,58.64 691.04,60.88 C691.04,66.8 687.04,71.92 679.04,76.24 C680.96,78.56 683.04,79.68 685.44,79.68 C686.08,79.68 687.12,79.6 688.48,79.44 C689.84,79.28 690.88,79.12 691.52,79.12 C692.32,79.12 693.12,79.52 693.76,80.16 C694.4,80.96 694.72,81.76 694.72,82.56 C694.72,85.12 692,86.48 686.64,86.48 C680.56,86.48 676.08,83.76 673.2,78.24 L673.2,78.24 L670.8,78.24 C668.72,78.24 666.72,77.84 664.64,76.96 C661.92,75.84 660.64,74.4 660.64,72.64 C660.64,70.4 661.68,69.28 663.76,69.28 C664.24,69.28 665.04,69.68 666.16,70.48 C667.28,71.28 668.32,71.68 669.44,71.68 L669.44,71.68 L671.28,71.68 C671.04,70.32 670.96,69.2 670.96,68.4 C670.96,64.56 671.92,60.96 673.84,57.6 C676.08,53.68 678.88,51.68 682.32,51.68 Z M644.64,51.68 C646.64,51.68 648.56,52.64 650.48,54.56 C652.4,56.48 653.36,58.64 653.36,60.88 C653.36,66.8 649.36,71.92 641.36,76.24 C643.28,78.56 645.36,79.68 647.76,79.68 C648.4,79.68 649.44,79.6 650.8,79.44 C652.16,79.28 653.2,79.12 653.84,79.12 C654.64,79.12 655.44,79.52 656.08,80.16 C656.72,80.96 657.04,81.76 657.04,82.56 C657.04,85.12 654.32,86.48 648.96,86.48 C642.88,86.48 638.4,83.76 635.52,78.24 L635.52,78.24 L633.12,78.24 C631.04,78.24 629.04,77.84 626.96,76.96 C624.24,75.84 622.96,74.4 622.96,72.64 C622.96,70.4 624,69.28 626.08,69.28 C626.56,69.28 627.36,69.68 628.48,70.48 C629.6,71.28 630.64,71.68 631.76,71.68 L631.76,71.68 L633.6,71.68 C633.36,70.32 633.28,69.2 633.28,68.4 C633.28,64.56 634.24,60.96 636.16,57.6 C638.4,53.68 641.2,51.68 644.64,51.68 Z M180.56,51.68 C182.56,51.68 184.48,52.64 186.4,54.56 C188.32,56.48 189.28,58.64 189.28,60.88 C189.28,66.8 185.28,71.92 177.28,76.24 C179.2,78.56 181.28,79.68 183.68,79.68 C184.32,79.68 185.36,79.6 186.72,79.44 C188.08,79.28 189.12,79.12 189.76,79.12 C190.56,79.12 191.36,79.52 192,80.16 C192.64,80.96 192.96,81.76 192.96,82.56 C192.96,85.12 190.24,86.48 184.88,86.48 C178.8,86.48 174.32,83.76 171.44,78.24 L171.44,78.24 L169.04,78.24 C166.96,78.24 164.96,77.84 162.88,76.96 C160.16,75.84 158.88,74.4 158.88,72.64 C158.88,70.4 159.92,69.28 162,69.28 C162.48,69.28 163.28,69.68 164.4,70.48 C165.52,71.28 166.56,71.68 167.68,71.68 L167.68,71.68 L169.52,71.68 C169.28,70.32 169.2,69.2 169.2,68.4 C169.2,64.56 170.16,60.96 172.08,57.6 C174.32,53.68 177.12,51.68 180.56,51.68 Z M546.88,52.08 C548.08,52.08 549.2,52.48 550.24,53.2 C551.2,54 551.68,54.96 551.68,56.24 C551.68,57.2 551.2,58.08 550.32,59.04 C549.28,60 548.24,60.4 547.2,60.4 C545.2,60.4 543.76,60.16 542.8,59.6 C540.64,61.04 538.88,63.04 537.44,65.44 C536,67.84 535.28,70.32 535.28,72.8 C535.28,76.8 536.8,78.72 540,78.72 C542,78.72 543.68,78.24 545.04,77.2 C545.84,76.4 546.8,75.6 547.76,74.8 C548.88,73.76 549.84,73.2 550.48,73.2 C551.28,73.2 552,73.6 552.64,74.24 C553.28,75.04 553.6,75.84 553.6,76.64 C553.6,78.24 552.32,79.92 549.84,81.84 C546.8,84.24 543.68,85.44 540.64,85.44 C537.28,85.44 534.48,84.32 532.24,82.16 C530,79.92 528.88,77.12 528.88,73.6 C528.88,68.64 530.4,64.08 533.52,59.92 C537.36,54.72 541.84,52.08 546.88,52.08 Z M255.44,52.16 C255.6,52.16 256.24,52.32 257.36,52.64 C260.16,53.6 262.48,55.36 264.32,57.84 C266.08,60.4 266.96,63.28 266.96,66.4 C266.96,71.84 265.6,76.32 263.04,80 C260.4,83.68 257.12,85.44 253.28,85.44 C249.92,85.44 247.12,84.08 244.88,81.52 C242.64,78.88 241.6,75.52 241.6,71.44 C241.6,68 242.32,64.72 243.92,61.68 C245.52,58.32 247.76,55.92 250.48,54.56 C251.12,54.32 252,53.84 253.12,53.2 C254.08,52.56 254.8,52.16 255.44,52.16 Z M498.16,30.48 C505.2,30.48 510.88,33.2 515.28,38.48 C519.36,43.6 521.44,49.92 521.44,57.44 C521.44,64.96 518.96,71.04 514,75.84 C509.04,80.64 502.96,83.04 495.92,83.04 C489.36,83.04 483.6,81.04 478.56,76.88 C473.04,72.4 470.32,67.04 470.32,60.8 C470.32,55.04 472.32,49.6 476.4,44.64 C479.92,40.32 484.72,36.72 490.8,33.68 C491.28,32.24 492.24,31.28 493.84,30.8 C494.64,30.64 496.08,30.48 498.16,30.48 Z M255.2,60.32 C252.96,60.32 251.12,61.68 249.68,64.24 C248.4,66.48 247.84,68.88 247.84,71.44 C247.84,73.36 248.32,75.04 249.36,76.48 C250.32,78 251.6,78.72 253.2,78.72 C255.12,78.72 256.8,77.52 258.4,75.12 C259.84,72.8 260.64,70.32 260.64,67.6 C260.64,64.24 259.84,62 258.32,61.04 C257.04,61.04 256,60.8 255.2,60.32 Z M501.6,37.68 C501.12,37.92 500.64,38.08 500,38.08 C494.88,38.72 489.84,41.28 484.88,45.6 C479.52,50.24 476.88,54.88 476.88,59.68 C476.88,64.72 478.96,68.8 483.2,71.84 C486.96,74.72 491.44,76.08 496.72,76.08 C501.84,76.08 506.16,74.4 509.68,70.88 C513.12,67.44 514.88,63.12 514.88,58 C514.88,46.96 510.4,40.24 501.6,37.68 Z M290.88,28.88 C291.68,28.88 292.4,29.28 292.96,30 C293.52,30.72 293.84,31.52 293.84,32.32 C293.6,33.04 293.28,34.08 292.96,35.36 C290.88,43.76 289.6,54.48 289.12,67.52 C288.96,70.4 287.92,71.76 285.92,71.76 C284.96,71.76 284.24,71.44 283.68,70.8 C283.04,70.16 282.8,69.44 282.8,68.56 L282.8,68.56 L282.800741,68.26 C282.804444,67.66 282.826667,66.56 282.96,64.96 C283.04,62.72 283.28,58.72 283.68,53.12 C284.24,46.08 284.96,40.8 285.92,37.36 C285.76,36.88 285.68,36.48 285.68,36 C285.68,35.44 285.84,34.32 286.32,32.72 C286.56,31.76 287.2,30.8 288.16,30 C289.04,29.28 289.92,28.88 290.88,28.88 Z M180.24,58.56 C178.8,58.56 177.68,59.76 176.88,62.16 C176.08,64.16 175.76,66.24 175.76,68.4 L175.76,68.4 L175.76,69.84 C180.56,66.72 182.96,63.84 182.96,61.2 C182.96,60.56 182.64,60 182.16,59.36 C181.52,58.88 180.88,58.56 180.24,58.56 Z M644.32,58.56 C642.88,58.56 641.76,59.76 640.96,62.16 C640.16,64.16 639.84,66.24 639.84,68.4 L639.84,68.4 L639.84,69.84 C644.64,66.72 647.04,63.84 647.04,61.2 C647.04,60.56 646.72,60 646.24,59.36 C645.6,58.88 644.96,58.56 644.32,58.56 Z M682,58.56 C680.56,58.56 679.44,59.76 678.64,62.16 C677.84,64.16 677.52,66.24 677.52,68.4 L677.52,68.4 L677.52,69.84 C682.32,66.72 684.72,63.84 684.72,61.2 C684.72,60.56 684.4,60 683.92,59.36 C683.28,58.88 682.64,58.56 682,58.56 Z M370.24,11.44 C371.04,11.44 371.76,11.84 372.32,12.48 C372.88,13.12 373.2,13.92 373.2,14.8 C373.2,16.08 372.08,18.8 370,22.88 C368.08,26.72 366.56,29.28 365.44,30.72 C363.84,32.72 362.56,33.68 361.6,33.68 C359.6,33.68 358.64,32.72 358.64,30.8 C358.64,30 358.96,29.2 359.6,28.4 C361.68,25.76 363.2,23.12 364.24,20.4 C364.4,20.08 364.48,19.6 364.48,19.12 C364.48,17.12 365.04,15.2 366.24,13.44 C367.04,12.16 368.4,11.44 370.24,11.44 Z" id="Combine" fill="#8E354A"></path>
    </g>
</svg>